<?xml version="1.0" encoding="UTF-8"?>
<svg version="1.1" xmlns="http://www.w3.org/2000/svg" width="2000" height="434">
<path d="M0 0 C7.85108 6.33887113 12.38794357 14.09548637 16.66162109 23.09619141 C17.49669189 24.80657593 17.49669189 24.80657593 18.34863281 26.55151367 C20.93178831 31.86108652 23.45735051 37.19679192 25.95849609 42.54541016 C36.94833426 66.04293643 49.50292218 87.66841827 68.28662109 105.84619141 C91.14020112 95.54952348 106.26137598 55.76876953 116.07177734 34.82666016 C116.72649058 33.4386054 117.38127581 32.05058459 118.03613281 30.66259766 C119.30190976 27.97754453 120.54321492 25.2829448 121.77148438 22.58056641 C126.92729119 11.46693445 134.12538286 0.68862691 145.78662109 -4.34130859 C146.51880859 -4.66486328 147.25099609 -4.98841797 148.00537109 -5.32177734 C158.80240712 -9.2597374 169.89419694 -7.35777917 180.28662109 -3.15380859 C191.10252943 1.95202523 197.96472815 9.72069355 202.28662109 20.84619141 C208.27554403 41.15238325 199.05094827 61.15465732 189.41650391 78.875 C183.43904956 89.30325549 175.63327439 98.2614025 167.28662109 106.84619141 C166.47765381 107.68694214 166.47765381 107.68694214 165.65234375 108.54467773 C152.30425124 122.20844722 135.81766992 131.55904893 118.28662109 138.84619141 C122.34650336 141.32965751 126.40930667 143.80830799 130.47412109 146.28369141 C131.09598297 146.66245422 131.71784485 147.04121704 132.35855103 147.43145752 C141.39485527 152.93001035 150.48423418 158.32754855 159.62753296 163.64605713 C198.28918744 186.15593314 198.28918744 186.15593314 203.28662109 200.84619141 C204.03662109 203.90869141 204.03662109 203.90869141 204.28662109 206.84619141 C204.38974609 208.02181641 204.49287109 209.19744141 204.59912109 210.40869141 C204.36814838 220.47525197 200.67007209 228.65948236 193.65771484 235.75244141 C186.41783358 242.14548318 179.42818229 245.11995221 169.66162109 245.28369141 C168.36998047 245.32365234 167.07833984 245.36361328 165.74755859 245.40478516 C155.62905327 244.71661015 146.4324701 238.41216637 138.07519531 233.17700195 C135.03333749 231.27229126 131.97315102 229.39732257 128.91552734 227.51806641 C128.28518585 227.12965576 127.65484436 226.74124512 127.00540161 226.34106445 C120.32802758 222.23571203 113.56162875 218.28750605 106.78662109 214.34619141 C97.22599848 208.77623606 87.72970776 203.11311508 78.28662109 197.34619141 C67.46807415 190.73979302 56.56833613 184.28478702 45.62133789 177.89379883 C36.25284976 172.42329208 26.93310163 166.87544293 17.64570618 161.26834106 C15.10448882 159.73639488 12.56048385 158.20915725 10.01586914 156.68286133 C9.12683395 156.14956711 8.23779877 155.61627289 7.32182312 155.06681824 C6.65020645 154.66401138 5.97858978 154.26120453 5.28662109 153.84619141 C5.29550354 154.66558701 5.30438599 155.4849826 5.3135376 156.32920837 C5.39395477 164.0817798 5.4547224 171.83414667 5.49386978 179.58702755 C5.51467308 183.57211658 5.54285606 187.55685865 5.58837891 191.54174805 C5.63209837 195.39323358 5.65581268 199.24438708 5.66613007 203.09610176 C5.67347498 204.55961897 5.68781716 206.02311967 5.70954132 207.48649406 C5.82647163 215.6956164 5.61780431 222.63809571 1.28662109 229.84619141 C0.82900391 230.64412109 0.37138672 231.44205078 -0.10009766 232.26416016 C-4.28720401 237.96013366 -9.40734911 241.69317651 -15.71337891 244.84619141 C-20.06034194 245.20025956 -24.41639924 245.21746568 -28.77587891 245.28369141 C-29.97921875 245.32945312 -31.18255859 245.37521484 -32.42236328 245.42236328 C-40.62146831 245.52535586 -45.53846631 244.30864655 -51.71337891 238.84619141 C-52.94507813 237.77304687 -52.94507813 237.77304687 -54.20166016 236.67822266 C-55.10464844 235.67855469 -55.10464844 235.67855469 -56.02587891 234.65869141 C-56.64076172 234.00513672 -57.25564453 233.35158203 -57.88916016 232.67822266 C-64.124204 222.99855074 -64.29295641 213.02816781 -64.2434082 201.91943359 C-64.25051814 200.23460089 -64.25938684 198.54977483 -64.26986694 196.86495972 C-64.29334188 192.31975066 -64.29276197 187.77483008 -64.28795218 183.22957516 C-64.28735608 178.46022582 -64.31009033 173.69098926 -64.33052063 168.92169189 C-64.36585272 159.89577779 -64.38193401 150.86994404 -64.3902958 141.84396863 C-64.40327248 128.59615656 -64.44160608 115.34841197 -64.48439503 102.10066605 C-64.48753371 101.12765446 -64.4906724 100.15464288 -64.4939062 99.1521461 C-64.50018712 97.21179902 -64.50653072 95.27145214 -64.5129388 93.33110547 C-64.53096402 87.66049319 -64.54210005 81.98992031 -64.54723585 76.31928205 C-64.55107578 72.79210267 -64.55869334 69.26493755 -64.5670433 65.73776627 C-64.56999546 64.10556635 -64.57124097 62.47336229 -64.57063103 60.84115982 C-64.56996057 58.60865207 -64.57533511 56.37623369 -64.58207703 54.14373779 C-64.5833343 52.8960902 -64.58459158 51.64844261 -64.58588696 50.36298752 C-64.71534625 46.79192326 -65.16211511 43.37426721 -65.71337891 39.84619141 C-66.55025342 27.66322967 -64.09806666 17.69781633 -56.71337891 7.84619141 C-42.1940238 -8.03609167 -18.08770958 -13.24120147 0 0 Z " fill="#1576FF" transform="translate(85.71337890625,104.15380859375)"/>
<path d="M0 0 C7.83673118 6.92548337 13.69941871 17.09825612 17 27 C17.556875 26.02160156 18.11375 25.04320312 18.6875 24.03515625 C27.88285233 8.12660766 38.03514414 -3.06079902 56 -9 C67.69668088 -11.32462337 79.43899758 -10.0760812 89.8125 -3.875 C107.91943065 8.67878767 114.73074634 30.12660648 118.61376953 50.83007812 C122.74603745 74.04600562 122.14706571 97.80507465 122.10139394 121.29881048 C122.09503666 125.13573869 122.09454702 128.97266816 122.09336853 132.80960083 C122.09029099 140.03727454 122.08212713 147.26493268 122.07201904 154.49259961 C122.06074514 162.7372071 122.05531937 170.98181543 122.05032361 179.22642875 C122.03994046 196.15096299 122.02164091 213.07547584 122 230 C111.44 230 100.88 230 90 230 C89.98018066 226.09148193 89.96036133 222.18296387 89.93994141 218.15600586 C89.87266807 205.16012821 89.79513032 192.16432818 89.71247292 179.16854 C89.66266311 171.29865841 89.61622097 163.42878563 89.578125 155.55883789 C89.54485469 148.6876449 89.50484008 141.81652737 89.45720994 134.94541842 C89.43228693 131.31789968 89.41041177 127.69042874 89.39665604 124.06284904 C91.16413571 81.8535256 91.16413571 81.8535256 74.375 45 C69.18696867 40.85936367 63.29298335 39.62316325 56.73046875 40.19921875 C48.42022236 41.93118215 42.80423151 47.33497459 38 54 C25.17815084 75.78297579 26.68889462 103.87212502 26.59528303 128.17726684 C26.57941302 131.77002286 26.55270218 135.36269993 26.5272522 138.95539856 C26.48087921 145.72626847 26.44393759 152.49715395 26.41057932 159.26809913 C26.37206055 166.99032859 26.32273082 174.71247793 26.27259517 182.43463933 C26.16989402 198.28970691 26.0818633 214.14480906 26 230 C15.44 230 4.88 230 -6 230 C-6.01458252 225.67148926 -6.02916504 221.34297852 -6.04418945 216.88330078 C-6.09468291 202.53030005 -6.16115678 188.1774055 -6.23571491 173.82451057 C-6.28050329 165.1282994 -6.31995605 156.43212764 -6.34643555 147.73583984 C-6.36955404 140.14795231 -6.40310373 132.56019127 -6.44870156 124.97240436 C-6.47244896 120.96216637 -6.49129776 116.95205222 -6.49761391 112.94174576 C-5.54790439 77.81971719 -5.54790439 77.81971719 -19.40625 46.5859375 C-23.52002232 42.49233073 -28.18076821 40.40675488 -33.96875 39.97265625 C-41.44168511 40.07325345 -47.50150368 43.08602851 -53 48 C-70.20702217 68.41394213 -68.46313845 99.37883264 -68.50611091 124.38970017 C-68.51564576 128.11725828 -68.54185794 131.84470322 -68.56611633 135.57218933 C-68.6093774 142.59445322 -68.63816995 149.61669467 -68.66143972 156.63905019 C-68.68871129 164.64912499 -68.73260678 172.65908364 -68.77772844 180.66907465 C-68.86999445 197.11266912 -68.93974454 213.55625234 -69 230 C-79.56 230 -90.12 230 -101 230 C-101 151.79 -101 73.58 -101 -7 C-91.1 -7 -81.2 -7 -71 -7 C-70.67 1.58 -70.34 10.16 -70 19 C-69.05125 17.39125 -68.1025 15.7825 -67.125 14.125 C-59.56555039 2.35407346 -50.06519816 -5.87692695 -36.3125 -9.375 C-22.86597489 -11.71247838 -10.72661481 -8.45529143 0 0 Z " fill="#1576FF" transform="translate(878,102)"/>
<path d="M0 0 C23.96869914 18.06759084 32.92768238 49.90607458 36.9206543 78.31494141 C42.54175297 123.11204176 39.7142628 176.01551739 11.2890625 213.1484375 C2.31193008 223.67444136 -9.57455427 231.45299334 -23.4921875 233.25 C-36.52661815 234.2661775 -47.55690999 230.80522925 -57.6484375 222.46875 C-63.2672346 217.19572503 -66.17668075 212.03151061 -70.4921875 205.25 C-70.8221875 241.55 -71.1521875 277.85 -71.4921875 315.25 C-82.0521875 315.25 -92.6121875 315.25 -103.4921875 315.25 C-103.4921875 208.99 -103.4921875 102.73 -103.4921875 -6.75 C-93.2621875 -6.75 -83.0321875 -6.75 -72.4921875 -6.75 C-72.1621875 1.83 -71.8321875 10.41 -71.4921875 19.25 C-70.4609375 17.579375 -69.4296875 15.90875 -68.3671875 14.1875 C-60.59353651 2.06060445 -51.36254378 -5.96673323 -36.9765625 -9.33984375 C-23.50074965 -11.56462417 -10.97495801 -7.70655359 0 0 Z M-56.37109375 51.50390625 C-72.95559431 73.81955171 -74.37594148 107.41165893 -70.67163086 133.94946289 C-67.86445029 150.59270044 -62.28229219 168.9507625 -48.55078125 179.78125 C-41.98561551 184.20085277 -35.5807399 185.98624951 -27.7109375 184.7734375 C-19.03352213 182.72630078 -12.10086313 176.99345212 -7.38037109 169.48046875 C8.36445427 141.90772063 10.1433312 106.49366845 2.3203125 76.0625 C-1.85975998 61.08863554 -8.35934291 48.35512435 -22.16015625 40.37890625 C-35.39170656 33.9736834 -47.76751401 41.18318794 -56.37109375 51.50390625 Z " fill="#1576FF" transform="translate(1141.4921875,101.75)"/>
<path d="M0 0 C10.89 0 21.78 0 33 0 C33.33 50.49 33.66 100.98 34 153 C38.29 145.08 42.58 137.16 47 129 C49.124375 125.08125 51.24875 121.1625 53.4375 117.125 C57.99460109 108.7166032 62.53266709 100.29811458 67.0625 91.875 C71.83105499 83.00872397 76.63146925 74.16072474 81.46118164 65.32763672 C85.33619869 58.23379866 89.17268605 51.11967202 93 44 C97.49828579 35.63344913 102.01340907 27.27654874 106.5625 18.9375 C107.03880859 18.06416016 107.51511719 17.19082031 108.00585938 16.29101562 C110.97973924 10.84665803 113.98701586 5.42337146 117 0 C129.54 0 142.08 0 155 0 C145.70949008 18.58101983 145.70949008 18.58101983 142.703125 24.4453125 C142.34768112 25.13947266 141.99223724 25.83363281 141.62602234 26.54882812 C140.50210365 28.7416188 139.37636654 30.93346579 138.25 33.125 C137.85749054 33.88923279 137.46498108 34.65346558 137.06057739 35.44085693 C132.01984636 45.24698764 126.88830404 54.98828758 121.54785156 64.63525391 C116.64258673 73.54430266 112.03009265 82.60073116 107.39804077 91.65368652 C102.36530558 101.48538947 97.24086244 111.25122751 91.84179688 120.88867188 C90.97019318 122.45601814 90.11899632 124.03492031 89.29052734 125.62548828 C88 128 88 128 86.32275391 130.46435547 C83.64381263 134.8944984 82.6463527 137.54985388 83.8984375 142.68408203 C85.57542505 147.06843256 87.72682319 151.20761844 89.875 155.375 C90.63919567 156.93338228 91.39890688 158.49397102 92.15429688 160.05664062 C93.68746728 163.22043802 95.23843423 166.37443261 96.80371094 169.52246094 C99.88993668 175.76578746 102.69405429 182.12627681 105.5 188.5 C110.26907095 199.19649392 115.12056648 209.85354297 120 220.5 C125.40503341 232.2932657 130.75438422 244.10868221 136.04223633 255.95507812 C141.21969783 267.53456934 146.50147184 279.06585018 151.796875 290.59179688 C152.12851151 291.31475952 152.46014801 292.03772217 152.80183411 292.78259277 C153.42211635 294.13471675 154.0433761 295.48639292 154.66581726 296.83752441 C159 306.28993718 159 306.28993718 159 310 C146.46 310 133.92 310 121 310 C116.01904437 300.66070819 111.23948767 291.47800065 106.875 281.875 C105.74928265 279.42358491 104.62225907 276.97284156 103.4921875 274.5234375 C103.20583435 273.90237122 102.9194812 273.28130493 102.62445068 272.64141846 C99.5007359 265.88667783 96.25349253 259.19292475 93 252.5 C87.83443766 241.866311 82.80576614 231.17507212 77.8527832 220.44042969 C72.04929329 207.88896558 66.03667593 195.44065887 60 183 C55.60341003 190.16459367 51.52485834 197.46277998 47.5625 204.875 C46.48249314 206.89431319 45.40045863 208.91254322 44.31640625 210.9296875 C43.81094269 211.88650421 43.30547913 212.84332092 42.78469849 213.82913208 C41 217 41 217 39.17660522 219.55368042 C32.81135992 228.76656064 33.0033237 237.12331538 33.09765625 247.890625 C33.08825431 249.68953244 33.07578618 251.48842619 33.06040955 253.28729248 C33.02838889 257.98267614 33.03755071 262.67707609 33.05578613 267.37249756 C33.06700179 272.17942782 33.03858502 276.986114 33.01367188 281.79296875 C32.97069585 291.19559352 32.97496925 300.59731013 33 310 C22.11 310 11.22 310 0 310 C0 207.7 0 105.4 0 0 Z " fill="#1576FF" transform="translate(452,22)"/>
<path d="M0 0 C10.56 0 21.12 0 32 0 C32.33 64.02 32.66 128.04 33 194 C39.18003422 184.11194526 45.33634389 174.22293206 51.375 164.25 C52.1171466 163.02601686 52.85933487 161.802059 53.6015625 160.578125 C58.21985504 152.95865885 62.81383672 145.32483617 67.38867188 137.67919922 C72.56654537 129.0346935 77.80312691 120.42581449 83.0390625 111.81640625 C83.3839975 111.24654999 83.7289325 110.67669373 84.08432007 110.08956909 C85.10095416 108.42501663 86.14138605 106.77507431 87.18212891 105.12548828 C89.05957974 102.09674729 89.05957974 102.09674729 90.14208984 98.96435547 C91.43435259 95.78845549 92.28741544 94.12748336 95 92 C101.43067026 90.34630419 108.31369511 91.06736628 114.875 91.375 C116.72644316 91.42518777 118.57801607 91.47081049 120.4296875 91.51171875 C124.95633423 91.62166542 129.47674684 91.79402308 134 92 C129.36767713 101.40533497 124.62366825 110.69685638 119.4375 119.8125 C118.21824063 121.97236879 116.99950928 124.13253571 115.78125 126.29296875 C115.15992188 127.39302246 114.53859375 128.49307617 113.8984375 129.62646484 C110.71814982 135.27785568 107.57991037 140.95249015 104.4375 146.625 C98.57745056 157.19001498 92.66280446 167.72304933 86.70703125 178.234375 C86.01601318 179.46510742 86.01601318 179.46510742 85.31103516 180.72070312 C84.47734946 182.1701053 83.61512679 183.60373416 82.71630859 185.01367188 C80.5453727 188.35416739 80.5453727 188.35416739 80.19335938 192.20605469 C81.26152633 195.90584362 82.76562995 199.36628633 84.33203125 202.875 C84.67541534 203.65483246 85.01879944 204.43466492 85.37258911 205.23812866 C86.51436245 207.8275976 87.6633815 210.41378318 88.8125 213 C89.62417375 214.83657703 90.43544528 216.67333186 91.24633789 218.51025391 C93.82360217 224.34341151 96.41123576 230.17193909 99 236 C99.835005 237.88116534 100.66996657 239.76234996 101.50488281 241.64355469 C105.64018256 250.95932525 109.78046168 260.27288342 113.921875 269.5859375 C114.33456635 270.51404236 114.74725769 271.44214722 115.17245483 272.39837646 C117.35122383 277.2970556 119.53237142 282.1946607 121.71679688 287.09082031 C123.95261693 292.10237011 126.18358205 297.11605604 128.41140747 302.13116455 C129.25548052 304.02875946 130.10137881 305.92554365 130.94918823 307.82147217 C132.12054539 310.44142802 133.28559328 313.06410301 134.44921875 315.6875 C134.79611755 316.45929596 135.14301636 317.23109192 135.50042725 318.02627563 C135.8169928 318.74334686 136.13355835 319.46041809 136.4597168 320.19921875 C136.73470505 320.81627686 137.0096933 321.43333496 137.29301453 322.0690918 C138 324 138 324 139 329 C126.13 329 113.26 329 100 329 C91.8419629 311.22713346 83.72047839 293.44756245 75.8125 275.5625 C69.05835899 260.28772482 62.10355142 245.11535319 55 230 C54.12601563 231.38445312 54.12601563 231.38445312 53.234375 232.796875 C52.64647186 233.72756805 52.64647186 233.72756805 52.04669189 234.67706299 C51.17832372 236.06526672 50.31960518 237.45955098 49.47039795 238.85955811 C47.09157068 242.76440131 44.65741444 246.51013761 41.85742188 250.12695312 C31.14242264 264.68181701 31.3514751 279.30462905 31.71246338 296.57769775 C31.77584479 300.24567819 31.76997038 303.91359518 31.76953125 307.58203125 C31.77355115 314.72538619 31.88901626 321.85435429 32 329 C21.44 329 10.88 329 0 329 C0 220.43 0 111.86 0 0 Z " fill="#1576FF" transform="translate(1830,3)"/>
<path d="M0 0 C19.95310572 17.01264803 25.76245947 42.9665545 28.20145988 67.99106979 C28.63083309 74.23791877 28.5395782 80.49992879 28.52368164 86.75830078 C28.52339908 88.32625832 28.52355884 89.894216 28.52412415 91.46217346 C28.52440945 95.69079704 28.51855603 99.91939188 28.51155019 104.14800882 C28.50527205 108.5775834 28.50470933 113.00715873 28.50352478 117.43673706 C28.50042457 125.81228661 28.49222892 134.187823 28.48217529 142.56336677 C28.47097337 152.1039232 28.46549344 161.64448029 28.46047986 171.18504167 C28.45004514 190.79915132 28.43171604 210.41324295 28.41015625 230.02734375 C18.51015625 230.02734375 8.61015625 230.02734375 -1.58984375 230.02734375 C-1.91984375 222.43734375 -2.24984375 214.84734375 -2.58984375 207.02734375 C-3.60046875 208.69796875 -4.61109375 210.36859375 -5.65234375 212.08984375 C-12.11999697 222.15924398 -20.14419543 229.31833248 -32.02734375 232.40234375 C-45.41002492 234.74850252 -57.35428537 232.6656218 -68.58984375 225.02734375 C-82.9740739 213.22597536 -89.95733816 196.15132914 -92.30859375 178.01953125 C-94.32800603 153.92897839 -93.7231361 126.52028049 -77.58984375 107.02734375 C-77.06777344 106.38152344 -76.54570313 105.73570312 -76.0078125 105.0703125 C-68.41814051 96.59425546 -56.66196253 92.29721482 -45.58984375 91.02734375 C-42.29843228 90.90136645 -39.01216473 90.91042754 -35.71875 90.9296875 C-34.33525612 90.93180992 -34.33525612 90.93180992 -32.92381287 90.93397522 C-29.99995577 90.93953869 -27.0761774 90.95208433 -24.15234375 90.96484375 C-22.1608084 90.96986347 -20.16927185 90.97442555 -18.17773438 90.97851562 C-13.31507419 90.98949613 -8.45247228 91.00673536 -3.58984375 91.02734375 C-3.72373468 88.51523174 -3.86400621 86.00373595 -4.0078125 83.4921875 C-4.0445105 82.79138062 -4.0812085 82.09057373 -4.11901855 81.36853027 C-4.89150552 68.18297685 -7.75128245 53.59492772 -17.58984375 44.02734375 C-25.87844833 38.74204684 -33.98707817 36.58298878 -43.71484375 38.7109375 C-56.48917789 42.34137916 -64.57954799 48.42187249 -73.58984375 58.02734375 C-74.5871564 59.0300239 -75.58662374 60.03057416 -76.58984375 61.02734375 C-78.57999347 54.83166296 -80.56493697 48.63440091 -82.5390625 42.43359375 C-83.683778 38.84142959 -84.83960609 35.25520767 -86.046875 31.68359375 C-86.41167969 30.58015625 -86.77648437 29.47671875 -87.15234375 28.33984375 C-87.46300781 27.42847656 -87.77367187 26.51710937 -88.09375 25.578125 C-88.73859071 22.26252671 -88.60079973 20.27065559 -87.58984375 17.02734375 C-85.87064315 14.62224639 -83.85180275 12.62486996 -81.71484375 10.58984375 C-81.12695068 10.02072266 -80.53905762 9.45160156 -79.93334961 8.86523438 C-59.36237169 -10.57540899 -23.89457497 -18.20024187 0 0 Z M-56.375 138.13671875 C-62.47559632 147.63089437 -62.50508175 159.58914899 -60.52734375 170.40234375 C-58.6451736 177.96524563 -55.66385226 183.47657073 -49.65234375 188.46484375 C-41.92110834 192.40935161 -34.68352234 192.91811282 -26.38671875 190.34375 C-15.41701722 185.48512235 -10.01481392 175.63531279 -5.58984375 165.02734375 C-4.00115785 160.19796886 -3.34939841 156.0774446 -3.39453125 151 C-3.40419922 149.07124023 -3.40419922 149.07124023 -3.4140625 147.10351562 C-3.43076774 145.76562221 -3.44769756 144.42773158 -3.46484375 143.08984375 C-3.47489053 141.72461592 -3.48401339 140.35938095 -3.4921875 138.99414062 C-3.5156677 135.67169176 -3.54851016 132.34961054 -3.58984375 129.02734375 C-8.97919442 128.92781742 -14.36799985 128.85556716 -19.75805664 128.80761719 C-21.58822968 128.78761001 -23.41833967 128.76039524 -25.24829102 128.72558594 C-27.89224887 128.67658372 -30.5353554 128.65426614 -33.1796875 128.63671875 C-33.98631332 128.61607361 -34.79293915 128.59542847 -35.62400818 128.57415771 C-44.05440706 128.57089284 -51.19355857 131.30467964 -56.375 138.13671875 Z " fill="#1576FF" transform="translate(709.58984375,101.97265625)"/>
<path d="M0 0 C11.22 0 22.44 0 34 0 C37.56616598 14.81874241 41.13119013 29.63775905 44.6953125 44.4569931 C45.55809981 48.04420531 46.42100962 51.63138803 47.28393555 55.21856689 C58.59466444 102.24014591 58.59466444 102.24014591 63.96484375 124.86328125 C64.14501101 125.62198328 64.32517826 126.38068531 64.51080513 127.16237831 C65.99028995 133.39309341 67.4692218 139.62393639 68.93997192 145.85671997 C69.7914905 149.46481016 70.64560122 153.07227851 71.5 156.6796875 C71.74358749 157.71728714 71.98717499 158.75488678 72.23814392 159.82392883 C72.45861893 160.75327744 72.67909393 161.68262604 72.90625 162.64013672 C73.09509766 163.44119843 73.28394531 164.24226013 73.47851562 165.06759644 C73.94791314 167.06143583 73.94791314 167.06143583 75 169 C78.66893206 153.89638298 82.3352452 138.79213113 86 123.6875 C86.40725752 122.00909531 86.40725752 122.00909531 86.82274246 120.29678345 C94.59766452 88.25284371 102.33714842 56.20098811 109.95278835 24.1187849 C110.42510303 22.12953031 110.89790644 20.14039252 111.37086487 18.15129089 C111.93521888 15.77676148 112.49840723 13.40195456 113.06016541 11.02680969 C113.30384354 10.00153671 113.54752167 8.97626373 113.79858398 7.91992188 C114.00821274 7.03494019 114.21784149 6.1499585 114.43382263 5.23815918 C114.88075625 3.4713832 115.42369739 1.72890784 116 0 C126.23 0 136.46 0 147 0 C145.8062615 6.56556177 144.61618116 12.98211149 143.01074219 19.43359375 C142.82097494 20.20785706 142.6312077 20.98212036 142.43568993 21.77984619 C141.80913195 24.33315727 141.17797414 26.88530793 140.546875 29.4375 C140.09422657 31.27897237 139.64191421 33.12052738 139.18991089 34.9621582 C138.22088823 38.90814305 137.25000837 42.85366421 136.27764893 46.79882812 C133.92818645 56.33259171 131.58937222 65.86896965 129.25037003 75.40530396 C128.71148285 77.60233126 128.17248815 79.79933219 127.63338852 81.99630737 C122.37574563 103.42427682 117.17484909 124.86571194 111.99798584 146.31332397 C110.62810332 151.98834181 109.25580096 157.66277299 107.88330078 163.3371582 C104.0066931 179.36868175 100.13746134 195.40178851 96.31167603 211.44552612 C94.96395322 217.09613876 93.60931998 222.74508758 92.25269127 228.39356804 C91.36535546 232.09020202 90.481703 235.78761605 89.60821533 239.48754883 C73.59854489 307.2693483 73.59854489 307.2693483 51.296875 321.6640625 C43.06103711 326.45429474 32.60813879 327.02063935 23.4296875 324.77734375 C13.00087245 321.4407936 3.09896213 314.81175498 -2.31784058 305.05276489 C-3.64962621 301.04513456 -2.11871403 297.47359624 -0.8359375 293.6015625 C-0.56866852 292.72599701 -0.30139954 291.85043152 -0.02603149 290.94833374 C0.54140134 289.1071627 1.12214854 287.27004859 1.71533203 285.43701172 C2.62628711 282.62102121 3.49803487 279.79517607 4.36328125 276.96484375 C4.91965046 275.17638979 5.47816962 273.38860292 6.0390625 271.6015625 C6.3037735 270.75373199 6.5684845 269.90590149 6.84121704 269.03237915 C7.50157562 267.00136186 8.24334219 264.99714136 9 263 C9.66 262.67 10.32 262.34 11 262 C11.36351562 262.51949219 11.72703125 263.03898437 12.1015625 263.57421875 C17.14156872 270.56561199 22.26072932 276.10731426 31 278 C35.59651161 278.37791587 38.99256681 277.38420336 42.6875 274.625 C48.92568171 268.62729241 51.15124461 259.89708126 53.75 251.875 C53.96092285 251.23062988 54.1718457 250.58625977 54.38916016 249.92236328 C57.03037595 241.35737063 57.29445674 234.22437209 55.04418945 225.54907227 C54.8224578 224.64391026 54.60072615 223.73874826 54.37227535 222.80615711 C53.63354373 219.80583575 52.87345165 216.81136105 52.11328125 213.81640625 C51.582114 211.67673937 51.05234042 209.53672609 50.52386475 207.39639282 C49.3931359 202.82896122 48.25309318 198.26399827 47.10549927 193.70077515 C45.29902808 186.51744573 43.51282697 179.32917705 41.73022461 172.13989258 C39.61472572 163.61289174 37.49487733 155.08699961 35.36895847 146.5625906 C30.40093519 126.63758665 25.53136881 106.68908677 20.68186569 86.73496628 C19.07145832 80.11132128 17.45707964 73.48864236 15.84316826 66.86585045 C15.27861853 64.54901178 14.71425886 62.23212688 14.1499176 59.91523743 C11.88396331 50.61437748 9.60816199 41.31599279 7.32421875 32.01953125 C6.78832811 29.83634489 6.25243934 27.65315806 5.71655273 25.4699707 C4.77719236 21.64365733 3.83498201 17.81806305 2.89086914 13.99291992 C2.49484996 12.38072227 2.09892735 10.7685009 1.703125 9.15625 C1.52613571 8.44310135 1.34914642 7.7299527 1.16679382 6.99519348 C0 2.22740469 0 2.22740469 0 0 Z " fill="#1576FF" transform="translate(1495,95)"/>
<path d="M0 0 C21.35230671 18.2835183 26.62618986 47.11208716 28.90989685 73.81108093 C29.47900192 81.30138755 29.52846703 88.76098456 29.50805664 96.26879883 C29.50777379 97.74853005 29.50793441 99.22826141 29.50849915 100.70799255 C29.50878331 104.68231521 29.50294877 108.65660701 29.49592519 112.63092256 C29.48962765 116.80022664 29.48908283 120.96953161 29.48789978 125.13883972 C29.48480519 133.01492465 29.47661731 140.89099552 29.46655029 148.76707429 C29.45533067 157.74181007 29.44986403 166.71654657 29.44485486 175.69128764 C29.43443292 194.13534716 29.416111 212.57938743 29.39453125 231.0234375 C18.83453125 231.0234375 8.27453125 231.0234375 -2.60546875 231.0234375 C-2.62528809 226.87144775 -2.64510742 222.71945801 -2.66552734 218.44165039 C-2.73263617 204.67539467 -2.81017613 190.90921393 -2.89299583 177.14304447 C-2.94292441 168.80216837 -2.98936795 160.46130113 -3.02734375 152.12036133 C-3.0604876 144.84270803 -3.10043869 137.56512782 -3.14825881 130.28755563 C-3.17330359 126.4411335 -3.19514714 122.59475845 -3.20881271 118.74827766 C-2.13939088 81.32308971 -2.13939088 81.32308971 -16.98046875 48.2109375 C-22.90735585 43.27186492 -27.87033941 40.91637689 -35.60546875 41.0234375 C-43.15148224 41.82075213 -49.58407747 45.59109264 -54.73046875 51.0859375 C-71.95966197 72.90333978 -69.90774621 104.78143138 -70.01018572 130.89824009 C-70.02607707 134.43226709 -70.05278048 137.96621424 -70.07821655 141.50018311 C-70.12455324 148.15768822 -70.16151182 154.81520915 -70.19488943 161.47279048 C-70.23343466 169.06687206 -70.28275698 176.66087255 -70.33287358 184.2548852 C-70.43552039 199.84434929 -70.52357247 215.43384849 -70.60546875 231.0234375 C-81.16546875 231.0234375 -91.72546875 231.0234375 -102.60546875 231.0234375 C-102.60546875 152.8134375 -102.60546875 74.6034375 -102.60546875 -5.9765625 C-92.37546875 -5.9765625 -82.14546875 -5.9765625 -71.60546875 -5.9765625 C-71.27546875 2.2734375 -70.94546875 10.5234375 -70.60546875 19.0234375 C-68.87296875 16.5484375 -68.87296875 16.5484375 -67.10546875 14.0234375 C-58.32562405 1.99752346 -49.19772266 -5.32000431 -34.60546875 -8.6640625 C-21.86108712 -9.99160225 -10.36711164 -7.86470538 0 0 Z " fill="#1576FF" transform="translate(1762.60546875,100.9765625)"/>
<path d="M0 0 C10.56 0 21.12 0 32 0 C32.01458252 4.33374756 32.02916504 8.66749512 32.04418945 13.13256836 C32.0946666 27.49755016 32.16113744 41.86242568 32.23571491 56.2273016 C32.28051739 64.93138855 32.31996707 73.635436 32.34643555 82.33959961 C32.36954244 89.93370357 32.40307969 97.52768088 32.44870156 105.12168413 C32.47246428 109.13580272 32.49130322 113.1497972 32.49761391 117.1639843 C31.46933727 153.03218636 31.46933727 153.03218636 47 184 C53.45464447 189.35798157 59.88801627 189.70714678 68 189 C76.14253674 186.92371567 81.55467013 182.02212821 85.84765625 174.9609375 C97.70994237 152.64674323 97.31174318 128.24722897 97.40471697 103.62166286 C97.4205505 99.96750254 97.44727391 96.31342055 97.4727478 92.65931702 C97.51918314 85.76796588 97.5560955 78.87659941 97.58942068 71.98517376 C97.62789418 64.12756449 97.67723648 56.27003458 97.72740483 48.41249263 C97.83019921 32.27504714 97.91819314 16.13756761 98 0 C108.56 0 119.12 0 130 0 C130 78.21 130 156.42 130 237 C119.77 237 109.54 237 99 237 C98.505 224.625 98.505 224.625 98 212 C97.030625 213.629375 96.06125 215.25875 95.0625 216.9375 C87.82889111 228.16256241 78.29252555 236.77318944 64.89453125 239.671875 C51.7613861 241.16065259 39.70341969 239.07902352 29 231 C8.28221526 213.85098001 2.72393113 185.74872743 0.18704081 160.24806905 C-0.33016553 154.03169528 -0.25949985 147.79888939 -0.22705078 141.56616211 C-0.22648457 140.0070242 -0.22680731 138.44788577 -0.22793579 136.88874817 C-0.22850211 132.7162857 -0.2168667 128.54394174 -0.20278788 124.37150645 C-0.19015829 119.9886899 -0.1891005 115.60586967 -0.18673706 111.22303772 C-0.18055781 102.95040813 -0.16419589 94.67783235 -0.14403808 86.40522629 C-0.12156743 76.97575666 -0.11065777 67.54628427 -0.10064721 58.11679447 C-0.07982588 38.74449308 -0.04319494 19.37226531 0 0 Z " fill="#1576FF" transform="translate(1208,95)"/>
<path d="M0 0 C10.89 0 21.78 0 33 0 C33 85.8 33 171.6 33 260 C63.03 260 93.06 260 124 260 C124 276.5 124 293 124 310 C83.08 310 42.16 310 0 310 C0 207.7 0 105.4 0 0 Z " fill="#1576FF" transform="translate(1381,22)"/>
<path d="M0 0 C8.23845746 5.8199709 13.95447647 13.18894677 16.33984375 23.09375 C18.1429059 34.30707937 16.10609252 44.30081606 9.4765625 53.54296875 C3.17128644 61.21771653 -4.3989863 66.02539382 -14.25 67.64453125 C-24.50677961 68.64719721 -34.62755443 66.59382948 -43.125 60.58203125 C-50.835089 53.97946885 -55.63726944 45.17082417 -56.5859375 35.06640625 C-56.70933711 23.4668427 -54.79733529 14.65282472 -47.2265625 5.6484375 C-34.57237926 -7.18080361 -15.38501004 -9.26840015 0 0 Z " fill="#1576FF" transform="translate(85.25,8.35546875)"/>
<path d="M0 0 C8.12105654 6.45993134 13.76752086 13.69437807 15.75 24.1875 C16.71188673 35.68283484 14.77338258 45.36563355 7.375 54.41015625 C0.47442251 61.95766289 -7.45350107 66.56473818 -17.79296875 67.390625 C-29.26513737 67.59397215 -38.1738848 64.39559875 -46.875 56.9375 C-54.98285628 47.54945589 -57.75962344 39.46084677 -57.5625 26.98046875 C-56.74705079 17.08295401 -52.50956265 8.70999591 -44.9921875 2.24609375 C-30.99625196 -8.26182651 -15.12607772 -8.43569719 0 0 Z " fill="#1576FF" transform="translate(265.25,8.8125)"/>
</svg>
